# xmcd CD database file
#
# Track frame offsets:
#	150
#	13575
#	32100
#	53775
#	64050
#	74475
#	91050
#	119925
#	133200
#	150675
#	170850
#	187875
#	203700
#	223275
#	241500
#
# Disc length: 3530 seconds
#
# Revision: 0
# Processed by: cddbd v1.5.2PL0 Copyright (c) Steve Scherf et al.
# Submitted via: CDex 1.70beta2
#
DISCID=de0dc80f
DTITLE=Louis Armstrong and the Dukes of Dixieland - Disc 3
DYEAR=1960
DGENRE=Jazz
TTITLE0=Bill Bailey 
TTITLE1=Someday You’ll Be Sorry 
TTITLE2=I Ain’t Gonna Give Nobody None Of My Jelly Roll
TTITLE3=Cornet Chop Suey 
TTITLE4=The Bucket’s Got A Hole In 
TTITLE5=South 
TTITLE6=Avalon 
TTITLE7=New Orleans 
TTITLE8=That’s A Plenty 
TTITLE9=Just A Closer Walk With Thee 
TTITLE10=Dixie 
TTITLE11=The Sheik Of Araby 
TTITLE12=Wolverine Blues 
TTITLE13=Sweet Georgia Brown 
TTITLE14=Limehouse Blues 
EXTD=YEAR: 1960
EXTT0=
EXTT1=
EXTT2=
EXTT3=
EXTT4=
EXTT5=
EXTT6=
EXTT7=
EXTT8=
EXTT9=
EXTT10=
EXTT11=
EXTT12=
EXTT13=
EXTT14=
PLAYORDER=
